<!-- This is an SVG that can be converted to ICO format -->
<svg viewBox="0 0 32 32" xmlns="http://www.w3.org/2000/svg">
  <defs>
    <linearGradient id="faviconGradient" x1="0%" y1="0%" x2="100%" y2="100%">
      <stop offset="0%" style="stop-color:#10b981;stop-opacity:1" />
      <stop offset="50%" style="stop-color:#059669;stop-opacity:1" />
      <stop offset="100%" style="stop-color:#047857;stop-opacity:1" />
    </linearGradient>
  </defs>
  
  <!-- Main circular background -->
  <circle cx="16" cy="16" r="16" fill="url(#faviconGradient)" />
  
  <!-- Simplified wheat design for small size -->
  <g fill="white" opacity="0.95">
    <!-- Center stalk -->
    <path d="M16 6 L16 26 M14 8 L18 8 M13 11 L19 11 M12 14 L20 14 M13 17 L19 17 M14 20 L18 20" 
          stroke="white" stroke-width="1" stroke-linecap="round"/>
    
    <!-- Wheat grains - simplified for favicon -->
    <circle cx="11" cy="10" r="1"/>
    <circle cx="10" cy="13" r="1"/>
    <circle cx="11" cy="16" r="1"/>
    <circle cx="12" cy="19" r="1"/>
    
    <circle cx="21" cy="10" r="1"/>
    <circle cx="22" cy="13" r="1"/>
    <circle cx="21" cy="16" r="1"/>
    <circle cx="20" cy="19" r="1"/>
    
    <circle cx="16" cy="12" r="0.5"/>
    <circle cx="16" cy="15" r="0.5"/>
    <circle cx="16" cy="18" r="0.5"/>
  </g>
</svg>